<?xml version="1.0" encoding="UTF-8" standalone="no"?>
<!-- Created with Inkscape (http://www.inkscape.org/) -->

<svg
   xmlns:dc="http://purl.org/dc/elements/1.1/"
   xmlns:cc="http://creativecommons.org/ns#"
   xmlns:rdf="http://www.w3.org/1999/02/22-rdf-syntax-ns#"
   xmlns:svg="http://www.w3.org/2000/svg"
   xmlns="http://www.w3.org/2000/svg"
   xmlns:sodipodi="http://sodipodi.sourceforge.net/DTD/sodipodi-0.dtd"
   xmlns:inkscape="http://www.inkscape.org/namespaces/inkscape"
   width="210mm"
   height="297mm"
   viewBox="0 0 744.09448819 1052.3622047"
   id="svg2"
   version="1.1"
   inkscape:version="0.91 r13725"
   sodipodi:docname="green-gocer.svg">
  <defs
     id="defs4" />
  <sodipodi:namedview
     id="base"
     pagecolor="#ffffff"
     bordercolor="#666666"
     borderopacity="1.0"
     inkscape:pageopacity="0.0"
     inkscape:pageshadow="2"
     inkscape:zoom="0.49497475"
     inkscape:cx="18.069529"
     inkscape:cy="202.09835"
     inkscape:document-units="px"
     inkscape:current-layer="layer1"
     showgrid="false"
     inkscape:window-width="1920"
     inkscape:window-height="983"
     inkscape:window-x="0"
     inkscape:window-y="27"
     inkscape:window-maximized="1" />
  <metadata
     id="metadata7">
    <rdf:RDF>
      <cc:Work
         rdf:about="">
        <dc:format>image/svg+xml</dc:format>
        <dc:type
           rdf:resource="http://purl.org/dc/dcmitype/StillImage" />
        <dc:title></dc:title>
      </cc:Work>
    </rdf:RDF>
  </metadata>
  <g
     inkscape:label="Layer 1"
     inkscape:groupmode="layer"
     id="layer1">
    <path
       style="fill:#5aa02c"
       d="m 322.97109,158.18876 c -5.49005,-5.65682 -7.54494,-14.32666 -9.28003,-21.92457 -1.08521,-7.53917 0.24398,-15.29583 5.06299,-21.28153 -3.31086,-9.49806 14.4913,-2.10361 11.50472,-11.70183 -4.57684,-9.451193 12.18256,-2.1487 12.90084,-10.719103 -6.24565,-8.965158 10.59842,-6.444951 12.50881,-13.713418 -0.97067,-9.20433 -13.53089,-8.99043 -20.28873,-10.426607 3.15199,-5.872098 12.7435,-7.561808 13.07436,-15.466606 -0.43629,-10.415555 -12.36007,-8.030734 -18.28364,-11.818109 -4.12422,-3.383692 -12.46313,9.673203 -13.4333,-1.494235 -6.87469,3.158298 -9.44443,11.019781 -13.6544,16.744985 -3.78657,-7.263532 -6.8355,3.974764 -8.85001,7.11834 -4.79748,4.352645 -0.55675,17.581216 -8.34445,16.744201 -2.95683,6.524891 0.01,13.949457 1.37665,20.552762 -6.05536,4.93667 2.44184,14.96508 3.52217,21.5484 1.91122,2.76024 4.96117,13.91784 -0.67325,6.87698 -9.88425,-12.37974 -14.75187,-27.64625 -21.06075,-41.929448 -1.14542,-7.282245 -9.61856,-3.65752 -12.0413,-6.734424 0.49867,-6.806735 -1.49269,-19.40601 -10.8525,-16.975918 -7.53938,3.655926 -2.18176,-13.873528 -10.82562,-14.740202 -6.30448,-3.320483 -6.1566,9.895155 -11.96028,2.822475 -4.90877,-4.761022 -13.7351,-4.240226 -16.94661,2.195053 -2.99015,4.828289 -1.66483,10.96548 1.61809,15.267696 -5.6334,3.986967 -4.75276,12.30349 2.21395,14.505483 4.32712,2.316849 16.57319,3.655879 6.4599,8.134734 -3.1101,8.501721 8.2952,11.278151 14.50501,12.102471 4.4259,0.0843 13.11114,1.5974 6.50576,6.21406 6.99266,5.93457 16.8414,6.12283 24.89042,10.06446 8.90981,3.96873 17.78703,8.95782 24.48473,16.11255 -6.49677,1.27593 -15.99636,-5.86774 -23.77165,-7.12912 -5.16041,-3.59189 -5.43284,5.43195 -10.66055,0.88441 -4.67479,-0.79897 -17.19806,-4.88733 -16.13119,3.01517 -7.3895,1.83224 -15.15865,3.29363 -21.82094,7.4331 -3.85207,1.8172 -6.60593,3.87379 -2.10827,6.41451 -5.79033,4.04387 -14.14456,7.03876 -16.63744,14.03752 9.26903,0.419 1.919,7.5216 0.0504,11.91631 6.5435,4.30016 1.04835,17.1126 11.07527,18.85657 8.0572,2.25936 11.50041,-7.35447 16.12417,-11.92881 4.58681,-0.0745 0.94335,11.58326 5.2316,15.00662 4.15013,9.81563 12.51931,1.12219 13.45313,-5.6615 0.66142,-8.29264 9.2143,2.06406 11.07353,-5.90059 1.57908,-4.59232 -0.0171,-13.59469 7.69138,-8.90403 8.13005,0.11791 1.43673,-15.2053 11.41496,-12.09518 7.37188,-6.50807 18.32676,-5.84649 27.13174,-3.13671 5.79316,0.20793 12.60991,7.48504 16.47155,6.39192 2.42628,-2.42628 4.85256,-4.85256 7.27883,-7.27884 z"
       id="path4149"
       inkscape:connector-curvature="0" />
    <path
       style="fill:#ff6600"
       d="m 520.52834,370.88472 c 4.53404,-9.42389 -3.60078,-21.05395 -6.42027,-30.53587 -16.73523,-37.78239 -36.20694,-74.42091 -58.20958,-109.39788 -2.2626,-4.27845 -5.66032,-14.17692 -9.56959,-14.63178 -14.74418,-12.31231 -43.16509,25.09751 -44.4351,21.64399 7.17362,-15.01726 20.58591,-25.34319 33.50851,-35.12856 2.6073,-11.25981 -10.31081,-21.42521 -15.16019,-31.35767 -9.79572,-13.36059 -18.78222,-27.48914 -29.9886,-39.71665 -13.12005,-6.78172 -28.43478,-0.40034 -40.85497,5.17952 -34.59344,15.90789 -63.574,48.09353 -68.70674,86.6581 -3.25686,12.05348 6.58024,19.94963 16.00257,25.07102 l 13.79435,7.42669 c 7.68141,-8.61223 12.5523,-19.18208 24.41938,-21.77277 3.56281,7.53969 -19.7269,28.10418 -12.98705,32.62213 13.98148,12.7635 38.05543,29.67006 56.16784,35.63337 12.53314,-1.15058 15.39591,-19.59325 28.54773,-21.8901 6.11044,3.41994 -6.73257,14.62788 -7.42496,21.75835 -7.24371,13.92712 15.07005,17.66122 22.5761,24.91695 27.11796,15.32153 54.35638,31.00387 83.69988,41.69328 4.67983,0.93284 10.37686,3.86531 15.04069,1.82788 z"
       id="path4149-3"
       inkscape:connector-curvature="0"
       sodipodi:nodetypes="cccccccccccccccccccc" />
    <rect
       style="fill:#ffffff;fill-opacity:1;stroke:#ff0000;stroke-width:21.29278374;stroke-miterlimit:4;stroke-dasharray:none;stroke-opacity:1"
       id="rect3075-3"
       width="638.78351"
       height="638.78351"
       x="44.263176"
       y="383.4577"
       rx="42.585567"
       ry="42.585567"
       inkscape:export-filename="/home/cwc/http/tritechsc.org/img/greengrocer.png"
       inkscape:export-xdpi="90"
       inkscape:export-ydpi="90" />
    <flowRoot
       xml:space="preserve"
       id="flowRoot3112"
       style="font-style:normal;font-weight:normal;font-size:40px;line-height:125%;font-family:Sans;letter-spacing:0px;word-spacing:0px;fill:#008f00;fill-opacity:1;stroke:none;stroke-width:0.25;stroke-miterlimit:4;stroke-dasharray:none;stroke-opacity:1"
       transform="matrix(4.2585566,0,0,4.2585566,-1330.4248,-1100.1165)"
       inkscape:export-filename="/home/cwc/http/tritechsc.org/img/greengrocer.png"
       inkscape:export-xdpi="90"
       inkscape:export-ydpi="90"><flowRegion
         id="flowRegion3114"><rect
           style="fill:#008f00;fill-opacity:1;stroke:none;stroke-width:0.25;stroke-miterlimit:4;stroke-dasharray:none;stroke-opacity:1"
           id="rect3116"
           width="169.28572"
           height="169.28572"
           x="280"
           y="343.07648" /></flowRegion><flowPara
         id="flowPara3118"
         style="font-style:normal;font-variant:normal;font-weight:normal;font-stretch:normal;font-family:Karla;-inkscape-font-specification:Karla;text-align:center;text-anchor:middle;fill:#008f00;fill-opacity:1;stroke:none;stroke-width:0.25;stroke-miterlimit:4;stroke-dasharray:none;stroke-opacity:1">The</flowPara><flowPara
         id="flowPara3122"
         style="font-style:normal;font-variant:normal;font-weight:normal;font-stretch:normal;font-family:Karla;-inkscape-font-specification:Karla;text-align:center;text-anchor:middle;fill:#008f00;fill-opacity:1;stroke:none;stroke-width:0.25;stroke-miterlimit:4;stroke-dasharray:none;stroke-opacity:1" /></flowRoot>    <flowRoot
       xml:space="preserve"
       id="flowRoot3112-6"
       style="font-style:normal;font-weight:normal;font-size:40px;line-height:125%;font-family:Sans;letter-spacing:0px;word-spacing:0px;fill:#008f00;fill-opacity:1;stroke:none;stroke-width:0.25;stroke-miterlimit:4;stroke-dasharray:none;stroke-opacity:1"
       transform="matrix(4.2585566,0,0,4.2585566,-1244.4193,-989.6129)"
       inkscape:export-filename="/home/cwc/http/tritechsc.org/img/greengrocer.png"
       inkscape:export-xdpi="90"
       inkscape:export-ydpi="90"><flowRegion
         id="flowRegion3114-3"><rect
           style="fill:#008f00;fill-opacity:1;stroke:none;stroke-width:0.25;stroke-miterlimit:4;stroke-dasharray:none;stroke-opacity:1"
           id="rect3116-9"
           width="169.28572"
           height="169.28572"
           x="280"
           y="343.07648" /></flowRegion><flowPara
         id="flowPara3118-4"
         style="font-style:normal;font-variant:normal;font-weight:normal;font-stretch:normal;font-family:Karla;-inkscape-font-specification:Karla;text-align:center;text-anchor:middle;fill:#008f00;fill-opacity:1;stroke:none;stroke-width:0.25;stroke-miterlimit:4;stroke-dasharray:none;stroke-opacity:1">Green</flowPara><flowPara
         id="flowPara3122-8"
         style="font-style:normal;font-variant:normal;font-weight:normal;font-stretch:normal;font-family:Karla;-inkscape-font-specification:Karla;text-align:center;text-anchor:middle;fill:#008f00;fill-opacity:1;stroke:none;stroke-width:0.25;stroke-miterlimit:4;stroke-dasharray:none;stroke-opacity:1" /></flowRoot>    <flowRoot
       xml:space="preserve"
       id="flowRoot3224"
       style="font-style:normal;font-weight:normal;font-size:40px;line-height:125%;font-family:Sans;text-align:center;letter-spacing:0px;word-spacing:0px;text-anchor:middle;fill:#d40000;fill-opacity:1;stroke:none"
       transform="matrix(4.2585566,0,0,4.2585566,-1556.9617,-798.6854)"
       inkscape:export-filename="/home/cwc/http/tritechsc.org/img/greengrocer.png"
       inkscape:export-xdpi="90"
       inkscape:export-ydpi="90"><flowRegion
         id="flowRegion3226"><rect
           id="rect3228"
           width="278.57141"
           height="238.57143"
           x="381.42856"
           y="387.36218"
           style="text-align:center;text-anchor:middle;fill:#d40000" /></flowRegion><flowPara
         id="flowPara3232"
         style="font-style:normal;font-variant:normal;font-weight:normal;font-stretch:normal;font-size:9px;font-family:Karla;-inkscape-font-specification:Karla;text-align:start;text-anchor:start;fill:#d40000">WSU </flowPara><flowPara
         id="flowPara3234"
         style="font-style:normal;font-variant:normal;font-weight:normal;font-stretch:normal;font-size:9px;font-family:Karla;-inkscape-font-specification:Karla;text-align:start;text-anchor:start;fill:#d40000">IMAGINE TOMORROW</flowPara><flowPara
         id="flowPara3236"
         style="font-style:normal;font-variant:normal;font-weight:normal;font-stretch:normal;font-size:9px;font-family:Karla;-inkscape-font-specification:Karla;text-align:start;text-anchor:start;fill:#d40000">PROGECT</flowPara></flowRoot>    <path
       style="fill:#008f00;fill-opacity:1"
       d="m 531.04417,860.41078 c -3.47993,-3.58566 -4.7824,-9.08107 -5.88221,-13.89696 -0.68786,-4.77881 0.15457,-9.69545 3.20919,-13.48948 -2.09861,-6.0204 9.18541,-1.33337 7.29236,-7.41724 -2.90105,-5.99072 7.72196,-1.36204 8.17728,-6.79443 -3.95888,-5.68261 6.71783,-4.08519 7.92875,-8.69235 -0.61528,-5.8342 -8.57661,-5.69855 -12.86012,-6.60887 1.9979,-3.72212 8.07755,-4.79309 8.28728,-9.80361 -0.27638,-6.602 -7.83451,-5.0903 -11.58919,-7.49097 -2.61416,-2.14477 -7.89984,6.1314 -8.51477,-0.94713 -4.35757,2.00188 -5.98643,6.98493 -8.65492,10.61391 -2.40017,-4.60405 -4.33275,2.51937 -5.60963,4.51191 -3.04091,2.75897 -0.35303,11.14404 -5.28921,10.61346 -1.87419,4.13584 0.005,8.84192 0.87262,13.02749 -3.83824,3.12918 1.54777,9.48571 2.23255,13.65856 1.21143,1.74955 3.14465,8.82186 -0.42675,4.35904 -6.26519,-7.84698 -9.35055,-17.52374 -13.34947,-26.57724 -0.72604,-4.61586 -6.09681,-2.31832 -7.63244,-4.26864 0.31598,-4.31454 -0.94617,-12.30064 -6.87893,-10.76028 -4.77887,2.31732 -1.38293,-8.79384 -6.8619,-9.34319 -3.9961,-2.10465 -3.90237,6.27208 -7.58109,1.78902 -3.11142,-3.0177 -8.70605,-2.68771 -10.74169,1.39135 -1.89531,3.06048 -1.05527,6.95059 1.02563,9.67759 -3.57075,2.52715 -3.01255,7.79862 1.40332,9.19436 2.74277,1.46855 10.50501,2.31732 4.09465,5.15625 -1.97133,5.38888 5.25795,7.14869 9.19409,7.67121 2.80537,0.0531 8.31058,1.01253 4.12373,3.93883 4.43231,3.76161 10.67501,3.88095 15.77693,6.37944 5.64753,2.51552 11.2744,5.67794 15.51976,10.21302 -4.11802,0.80874 -10.13937,-3.71938 -15.0678,-4.51887 -3.27095,-2.27675 -3.44364,3.44305 -6.75722,0.56062 -2.96314,-0.50649 -10.90109,-3.09794 -10.22488,1.91112 -4.68386,1.16146 -9.60836,2.08771 -13.83132,4.71158 -2.44164,1.15183 -4.18718,2.45534 -1.33634,4.06586 -3.67023,2.56324 -8.96558,4.46154 -10.54572,8.8977 5.87524,0.2658 1.21637,4.76763 0.0299,7.55325 4.14762,2.72572 0.66451,10.84692 7.02011,11.95242 5.10711,1.43201 7.28958,-4.66175 10.2204,-7.56122 2.90737,-0.0476 0.59795,7.34213 3.31606,9.51199 2.63059,6.22172 7.93544,0.71129 8.52733,-3.5885 0.41904,-5.25635 5.84057,1.30828 7.01904,-3.74017 1.00093,-2.91082 -0.0128,-8.61707 4.87524,-5.64387 5.15328,0.0751 0.91069,-9.63793 7.23541,-7.66655 4.67271,-4.12521 11.61653,-3.70582 17.19763,-1.98823 3.67202,0.13198 7.99284,4.74445 10.44057,4.05148 1.5379,-1.53789 3.07583,-3.07577 4.61372,-4.61366 z"
       id="path4149-36"
       inkscape:connector-curvature="0"
       inkscape:export-filename="/home/cwc/http/tritechsc.org/img/greengrocer.png"
       inkscape:export-xdpi="90"
       inkscape:export-ydpi="90" />
    <path
       style="fill:#ff6600"
       d="m 656.26694,995.22925 c 2.87393,-5.97332 -2.28237,-13.34513 -4.06952,-19.35527 -10.60773,-23.9486 -22.95,-47.17209 -36.89648,-69.34247 -1.43415,-2.71189 -3.58783,-8.98609 -6.06576,-9.27441 -9.34566,-7.8043 -27.36042,15.90818 -28.16541,13.71909 4.54703,-9.51877 13.04848,-16.06389 21.23955,-22.26637 1.65266,-7.13716 -6.53556,-13.58052 -9.60939,-19.87624 -6.20905,-8.46869 -11.90521,-17.42418 -19.00841,-25.17463 -8.31623,-4.29868 -18.02357,-0.25388 -25.89615,3.28305 -21.92726,10.08333 -40.29676,30.48438 -43.55017,54.92876 -2.06438,7.64017 4.17091,12.64511 10.14333,15.89143 l 8.74362,4.70745 c 4.8689,-5.45895 7.95635,-12.15876 15.47837,-13.80079 2.25831,4.77908 -12.50402,17.8139 -8.23192,20.67765 8.86222,8.09024 24.12165,18.80656 35.6023,22.58648 7.9442,-0.72933 9.75878,-12.41934 18.09511,-13.87526 3.87316,2.16785 -4.26745,9.27203 -4.70634,13.79173 -4.59145,8.82772 9.55224,11.19459 14.30998,15.7937 17.1889,9.71166 34.45412,19.65202 53.05366,26.42749 2.96634,0.5913 6.57742,2.45012 9.53363,1.15861 z"
       id="path4149-3-7"
       inkscape:connector-curvature="0"
       sodipodi:nodetypes="cccccccccccccccccccc"
       inkscape:export-filename="/home/cwc/http/tritechsc.org/img/greengrocer.png"
       inkscape:export-xdpi="90"
       inkscape:export-ydpi="90" />
    <flowRoot
       xml:space="preserve"
       id="flowRoot3112-6-1"
       style="font-style:normal;font-weight:normal;font-size:40px;line-height:125%;font-family:Sans;letter-spacing:0px;word-spacing:0px;fill:#008f00;fill-opacity:1;stroke:none;stroke-width:0.25;stroke-miterlimit:4;stroke-dasharray:none;stroke-opacity:1"
       transform="matrix(4.2585566,0,0,4.2585566,-1213.8109,-878.58641)"
       inkscape:export-filename="/home/cwc/http/tritechsc.org/img/greengrocer.png"
       inkscape:export-xdpi="90"
       inkscape:export-ydpi="90"><flowRegion
         id="flowRegion3114-3-2"><rect
           style="fill:#008f00;fill-opacity:1;stroke:none;stroke-width:0.25;stroke-miterlimit:4;stroke-dasharray:none;stroke-opacity:1"
           id="rect3116-9-9"
           width="169.28572"
           height="169.28572"
           x="280"
           y="343.07648" /></flowRegion><flowPara
         id="flowPara3118-4-3"
         style="font-style:normal;font-variant:normal;font-weight:normal;font-stretch:normal;font-family:Karla;-inkscape-font-specification:Karla;text-align:center;text-anchor:middle;fill:#008f00;fill-opacity:1;stroke:none;stroke-width:0.25;stroke-miterlimit:4;stroke-dasharray:none;stroke-opacity:1">Grocer</flowPara><flowPara
         id="flowPara3122-8-9"
         style="font-style:normal;font-variant:normal;font-weight:normal;font-stretch:normal;font-family:Karla;-inkscape-font-specification:Karla;text-align:center;text-anchor:middle;fill:#008f00;fill-opacity:1;stroke:none;stroke-width:0.25;stroke-miterlimit:4;stroke-dasharray:none;stroke-opacity:1" /></flowRoot>  </g>
</svg>
