<?xml version="1.0" encoding="UTF-8" standalone="no"?>
<!-- Created with Inkscape (http://www.inkscape.org/) -->

<svg
   xmlns:dc="http://purl.org/dc/elements/1.1/"
   xmlns:cc="http://creativecommons.org/ns#"
   xmlns:rdf="http://www.w3.org/1999/02/22-rdf-syntax-ns#"
   xmlns:svg="http://www.w3.org/2000/svg"
   xmlns="http://www.w3.org/2000/svg"
   xmlns:sodipodi="http://sodipodi.sourceforge.net/DTD/sodipodi-0.dtd"
   xmlns:inkscape="http://www.inkscape.org/namespaces/inkscape"
   width="1500"
   height="700"
   id="svg3234"
   version="1.1"
   inkscape:version="0.48.5 r10040"
   sodipodi:docname="New document 4">
  <defs
     id="defs3236" />
  <sodipodi:namedview
     id="base"
     pagecolor="#ffffff"
     bordercolor="#666666"
     borderopacity="1.0"
     inkscape:pageopacity="0.0"
     inkscape:pageshadow="2"
     inkscape:zoom="0.35"
     inkscape:cx="375"
     inkscape:cy="520"
     inkscape:document-units="px"
     inkscape:current-layer="layer1"
     showgrid="false"
     inkscape:window-width="1280"
     inkscape:window-height="962"
     inkscape:window-x="-8"
     inkscape:window-y="-8"
     inkscape:window-maximized="1" />
  <metadata
     id="metadata3239">
    <rdf:RDF>
      <cc:Work
         rdf:about="">
        <dc:format>image/svg+xml</dc:format>
        <dc:type
           rdf:resource="http://purl.org/dc/dcmitype/StillImage" />
        <dc:title></dc:title>
      </cc:Work>
    </rdf:RDF>
  </metadata>
  <g
     inkscape:label="Layer 1"
     inkscape:groupmode="layer"
     id="layer1"
     transform="translate(0,-352.36218)">
    <polygon
       style="fill:#ffffff"
       id="polygon3068"
       points="585.177,300.286 603.556,300.286 530.341,471.803 511.973,471.803 "
       transform="translate(309.97624,380.06492)" />
    <polygon
       style="fill:#ef4123"
       transform="translate(-285.73765,285.08556)"
       id="polygon3070"
       points="502.94,610.185 319.866,393.769 687.67,177.354 " />
    <path
       inkscape:connector-curvature="0"
       id="path3072"
       d="m 839.46024,665.47492 h 142.296 c 11.755,0 4.054,18.038 -7.689,18.038 h -142.297 c -12.021,0 -4.331,-18.038 7.69,-18.038 z m -15.356,186.358 c -5.131,12.021 -20.592,11.755 -15.461,-0.266 20.521,-48.097 60.302,-141.278 60.302,-141.278 0,0 -35.218,0 -47.517,0 -12.843,0 -4.899,-16.665 7.389,-16.665 17.766,0 62.816,0 62.816,0 0,0 -45.132,105.746 -67.529,158.209 z m 80.881,-158.76 c 0,0 45.051,0 62.804,0 12.3,0 6.011,16.672 -6.833,16.672 -12.299,0 -47.517,0 -47.517,0 0,0 -39.77,93.181 -60.292,141.266 -5.142,12.021 -20.822,12.299 -15.692,0.277 22.388,-52.462 67.53,-158.215 67.53,-158.215 z" />
    <path
       inkscape:connector-curvature="0"
       id="path3074"
       d="m 1118.2162,681.59592 c -16.665,0 -39.295,-0.272 -54.049,-0.272 -30.875,0 -88.66396,37.437 -107.08996,80.61 -18.669,43.725 4.898,80.06 43.70696,80.06 16.943,0 39.688,0 51.442,0 11.744,0 4.042,18.038 -7.712,18.038 -11.755,0 -34.489,0 -51.43296,0 -49.463,0 -77.246,-43.719 -54.048,-98.098 23.22,-54.379 89.54396,-98.375 132.70696,-98.375 14.766,0 37.396,0.277 54.061,0.277 11.756,0 4.17,17.76 -7.585,17.76 z m -147.33496,74.872 c 0,0 32.91396,-63.667 93.03096,-63.667 19.677,0 30.505,0 49.625,0 11.233,0 4.285,16.943 -6.683,16.943 -12.564,0 -36.236,0 -54.003,0 -27.597,0 -50.493,28.686 -50.493,28.686 0,0 54.987,0 74.664,0 12.299,0 5.697,18.038 -6.879,18.038 -30.33,0 -99.26196,0 -99.26196,0 z m 94.94296,10.117 c 12.577,0 3.787,18.031 -8.512,18.031 -19.677,0 -74.66396,0 -74.66396,0 0,0 -1.598,28.692 25.99996,28.692 17.766,0 41.437,0 54.015,0 12.576,0 5.071,16.937 -7.795,16.937 -19.12,0 -29.937,0 -49.625,0 -60.10396,0 -38.66896,-63.66 -38.66896,-63.66 0,0 68.91896,0 99.24996,0 z" />
    <path
       inkscape:connector-curvature="0"
       id="path3076"
       d="m 1274.8632,682.41892 c -12.299,0 -28.143,0 -47.541,0 -30.875,0 -82.318,25.137 -105.886,80.338 -18.819,41.535 7.944,80.61 37.546,79.788 17.209,0 33.597,0 46.996,0 12.021,0 4.32,18.037 -7.702,18.037 -13.388,0 -29.774,0 -46.995,0 -41.345,-1.094 -69.799,-44.54 -47.876,-97.825 27.991,-65.584 92,-98.37 131.619,-98.37 19.397,0 35.252,0 47.552,0 12.008,0 4.318,18.032 -7.713,18.032 z m -63.443,148.648 c -12.565,0 -21.042,0 -39.896,0 -36.341,0 -54.813,-30.33 -38.843,-67.771 16.445,-38.525 61.483,-71.039 98.091,-71.039 15.033,0 28.688,0 39.075,0 12.021,0 4.448,17.76 -7.573,17.76 -10.389,0 -24.055,0 -39.075,0 -25.42,0 -60.117,24.326 -72.486,53.279 -11.418,26.786 2.282,49.74 28.514,49.74 18.854,0 27.319,0 39.896,0 12.021,0 4.32,18.031 -7.703,18.031 z" />
    <path
       inkscape:connector-curvature="0"
       id="path3078"
       d="m 1231.3522,851.83292 76.169,-178.43 c 5.015,-11.755 23.045,-11.755 18.043,0 l -76.168,178.43 c -5.131,12.021 -23.162,12.021 -18.044,0 z m 143.745,0 76.1551,-178.43 c 5.017,-11.755 23.048,-11.755 18.033,0 l -76.158,178.43 c -5.141,12.021 -23.1611,12.021 -18.0301,0 z m -72.742,-95.91 c 0,0 20.418,-47.818 33.945,-79.515 6.994,-16.394 25.143,-16.672 17.799,0.543 -7.469,17.493 -26.242,61.478 -26.242,61.478 h 66.6721 c 0,0 19.827,-46.452 26.244,-61.478 6.878,-16.115 25.304,-16.393 18.309,0 -9.218,21.587 -33.712,78.971 -33.712,78.971 h -103.0151 z m 98.6251,10.928 c 0,0 -20.753,48.64 -34.4061,80.616 -6.88,16.12 -25.572,16.387 -18.345,-0.546 7.585,-17.765 26.705,-62.583 26.705,-62.583 h -66.672 c 0,0 -20.418,47.829 -26.938,63.129 -6.775,15.842 -24.923,16.12 -18.032,0 9.322,-21.866 34.396,-80.616 34.396,-80.616 h 103.2921 z" />
    <g
       id="g3080"
       transform="translate(309.97624,380.06492)">
      <path
         style="fill:none"
         inkscape:connector-curvature="0"
         id="path3082"
         d="m 279.726,326.946 c -12.843,0 -24.667,-0.023 -24.667,-0.023 l -20.44,47.9 c 0,0 16.237,-0.058 26.069,-0.058 10.11,0 27.424,-11.749 32.624,-24.593 5.21,-12.843 -0.742,-23.226 -13.586,-23.226 z" />
      <path
         inkscape:connector-curvature="0"
         id="path3084"
         d="m 77.984,312.041 c -12.299,0 -20.232,16.666 -7.389,16.666 12.299,0 47.512,0 47.512,0 0,0 -40.679,95.312 -61.212,143.409 -5.131,12.021 10.33,12.299 15.461,0.277 22.397,-52.468 68.443,-160.352 68.443,-160.352 0,0 -45.061,0 -62.815,0 z" />
      <path
         inkscape:connector-curvature="0"
         id="path3086"
         d="m 256.356,401.546 c -23.22,0 -48.635,0 -48.635,0 0,0 -20.875,48.913 -29.619,69.399 -5.484,12.844 11.65,11.754 16.896,-0.544 8.634,-20.222 22.167,-51.919 22.167,-51.919 0,0 14.199,0 30.053,0 10.376,0 11.963,8.478 8.697,16.121 -8.28,19.404 -10.272,24.055 -15.171,35.525 -5.362,12.57 11.35,13.115 16.943,0 8.408,-19.67 8.049,-18.849 15.519,-36.336 5.594,-13.12 0.916,-32.246 -16.85,-32.246 z" />
      <path
         inkscape:connector-curvature="0"
         id="path3088"
         d="m 218.231,311.602 c -0.417,-0.042 -0.811,-0.105 -1.274,-0.105 -17.76,0 -62.81,0 -62.81,0 0,0 -46.046,107.878 -68.438,160.34 -5.136,12.032 10.562,11.755 15.687,-0.272 20.527,-48.09 61.212,-143.402 61.212,-143.402 0,0 35.212,0 47.506,0 0.381,0 0.729,-0.064 1.088,-0.087 -21.737,50.939 -48.942,114.687 -60.627,142.053 -5.362,12.57 10.8,13.115 16.167,0.55 19.254,-45.108 55.671,-130.797 67.923,-159.321 h -16.329 c -0.036,0.093 -0.07,0.167 -0.105,0.244 z" />
      <path
         inkscape:connector-curvature="0"
         id="path3090"
         d="m 300.179,393.619 c 0,0 23.127,-14.482 35.379,-43.169 15.623,-36.619 -1.447,-66.4 -38.067,-66.4 l -67.414,-0.22 c -0.012,0.023 -0.012,0.047 -0.023,0.063 H 88.627 c -12.021,0 -19.717,18.038 -7.701,18.038 h 141.428 c -0.012,0.035 -0.035,0.082 -0.047,0.127 h 16.388 c 0.046,-0.092 0.104,-0.226 0.115,-0.243 l 50.737,-0.371 c 34.118,-0.046 39.688,27.969 30.945,48.456 -12.484,29.236 -42.283,43.996 -42.283,43.996 0,0 15.913,13.932 8.095,32.243 -9.207,21.587 -10.84,25.408 -18.541,43.445 -5.721,13.383 10.84,13.66 16.665,0 8.987,-21.037 10.851,-25.414 19.364,-45.357 7.111,-16.67 -3.613,-30.608 -3.613,-30.608 z" />
      <path
         inkscape:connector-curvature="0"
         id="path3092"
         d="m 224.63471,362.60639 c -1.72426,4.06337 -3.65492,8.24512 -5.13766,11.74013 -4.10604,9.67846 -6.98705,15.99548 -6.98705,15.99548 0,0 22.398,0 39.341,0 21.043,-10e-4 48.142,-18.033 57.315,-40.17 8.825,-21.315 -1.703,-38.258 -23.023,-38.258 -21.31,0 -40.453,0.29 -40.453,0.29 -1.40439,3.29123 -3.58231,8.52443 -6.16654,14.60512 -1.97333,4.64325 -2.18359,4.2011 -4.46726,9.57957 l 15.20258,0 4.79922,-9.57957 c 0,0 11.824,0.13688 24.667,0.13688 12.845,0 18.797,10.383 13.586,23.226 -5.2,12.844 -22.514,24.593 -32.624,24.593 -9.832,0 -26.069,-0.41848 -26.069,-0.41848 l 5.92244,-11.74013 z"
         sodipodi:nodetypes="cscccscscccscsccc" />
      <path
         inkscape:connector-curvature="0"
         id="path3094"
         d="m 406.852,295.468 -75.346,176.519 c -5.015,11.749 13.017,11.749 18.032,0 l 75.346,-176.519 c 5.014,-11.754 -13.017,-11.754 -18.032,0 z" />
      <path
         inkscape:connector-curvature="0"
         id="path3096"
         d="m 378.432,295.468 -75.346,176.519 c -5.003,11.749 13.017,11.749 18.043,0 l 75.334,-176.519 c 5.015,-11.754 -13.017,-11.754 -18.031,0 z" />
    </g>
    <g
       id="g3098"
       transform="translate(309.97624,380.06492)">
      <path
         inkscape:connector-curvature="0"
         id="path3100"
         d="m 588.906,517.199 c 0.325,-0.74 0.695,-1.477 1.205,-2.223 3.139,-4.586 6.647,-6.566 11.662,-6.566 h 19.526 l -4.1,9.602 h -15.554 -0.625 l -0.764,0.068 c -0.985,0.121 -1.76,0.486 -2.456,1.239 -0.254,0.312 -0.451,0.614 -0.579,0.927 l -1.262,2.976 c -0.081,0.18 -0.197,0.429 -0.208,0.614 -0.312,1.303 0.07,1.737 1.599,1.923 0.162,0.058 0.405,0.058 0.591,0.058 h 6.937 c 4.899,0 6.891,2.305 5.837,6.949 -0.139,0.613 -0.336,1.238 -0.603,1.852 l -3.833,8.988 c -2.247,5.269 -6.532,8.615 -11.963,9.299 -0.59,0.058 -1.111,0.115 -1.667,0.115 h -18.958 l 4.1,-9.6 h 15.553 0.869 0.312 c 0.208,-0.059 0.417,-0.128 0.638,-0.186 1.447,-0.492 2.142,-1.111 2.698,-2.42 l 1.378,-3.221 c 0.533,-1.238 0.232,-1.986 -1.124,-2.165 h -1.111 -6.879 c -3.162,0 -5.119,-1.366 -5.802,-3.966 -0.324,-1.431 -0.174,-3.099 0.544,-4.772 l 4.039,-9.491 z" />
      <path
         inkscape:connector-curvature="0"
         id="path3102"
         d="m 632.706,526.129 17.349,-17.719 h 10.979 l -21.447,21.934 2.768,22.676 H 631.33 l -2.34,-17.903 c -0.451,-3.718 -0.243,-4.645 1.76,-6.995 l 1.956,-1.993 z m -13.399,26.891 19.039,-44.609 h -9.601 l -19.039,44.609 h 9.601 z" />
      <path
         inkscape:connector-curvature="0"
         id="path3104"
         d="m 647.066,553.02 19.04,-44.609 h 9.612 l -19.04,44.609 h -9.612 z" />
      <path
         inkscape:connector-curvature="0"
         id="path3106"
         d="M 669.187,542.123 683.57,508.41 h 9.602 l -13.226,30.99 -0.776,1.854 -0.058,0.127 c -0.475,1.24 0.081,1.98 1.54,2.039 h 1.737 15.241 l -4.158,9.6 h -17.788 c -0.498,0 -1.054,0 -1.587,-0.058 -6.508,-0.556 -7.956,-3.706 -4.91,-10.839 z" />
      <path
         inkscape:connector-curvature="0"
         id="path3108"
         d="m 702.228,542.123 14.384,-33.713 h 9.601 l -13.227,30.99 -0.786,1.854 -0.047,0.127 c -0.476,1.24 0.081,1.98 1.54,2.039 h 1.726 15.252 l -4.157,9.6 h -17.789 c -0.497,0 -1.054,0 -1.586,-0.058 -6.522,-0.556 -7.958,-3.706 -4.911,-10.839 z" />
      <path
         inkscape:connector-curvature="0"
         id="path3110"
         d="m 747.498,517.199 c 0.324,-0.74 0.706,-1.477 1.204,-2.223 3.127,-4.586 6.647,-6.566 11.662,-6.566 h 19.525 l -4.1,9.602 h -15.554 -0.613 l -0.775,0.068 c -0.985,0.121 -1.761,0.486 -2.444,1.239 -0.267,0.312 -0.463,0.614 -0.591,0.927 l -1.273,2.976 c -0.069,0.18 -0.186,0.429 -0.197,0.614 -0.301,1.303 0.059,1.737 1.599,1.923 0.15,0.058 0.405,0.058 0.59,0.058 h 6.938 c 4.898,0 6.891,2.305 5.849,6.949 -0.15,0.613 -0.348,1.238 -0.613,1.852 l -3.834,8.988 c -2.247,5.269 -6.532,8.615 -11.964,9.299 -0.578,0.058 -1.11,0.115 -1.655,0.115 h -18.971 l 4.101,-9.6 h 15.554 0.868 0.302 c 0.219,-0.059 0.428,-0.128 0.647,-0.186 1.448,-0.492 2.154,-1.111 2.698,-2.42 l 1.379,-3.221 c 0.532,-1.238 0.231,-1.986 -1.112,-2.165 h -1.123 -6.879 c -3.162,0 -5.119,-1.366 -5.803,-3.966 -0.324,-1.431 -0.174,-3.099 0.545,-4.772 l 4.04,-9.491 z" />
      <path
         inkscape:connector-curvature="0"
         id="path3112"
         d="m 792.537,543.106 10.469,-24.54 c 3.3,-7.736 6.867,-10.156 14.812,-10.156 h 18.716 l -4.1,9.602 h -15.994 -0.868 -0.498 c -1.286,0.127 -2.328,0.805 -3.069,1.979 l -0.475,1.117 -7.864,18.408 c -1.272,2.977 -1.019,3.718 1.193,3.903 0.243,0 0.556,0 0.8,0 h 15.924 l -4.1,9.6 h -20.141 c -0.983,0 -2.014,-0.174 -3.057,-0.671 -3.139,-1.494 -3.799,-4.469 -1.748,-9.242 z" />
      <path
         inkscape:connector-curvature="0"
         id="path3114"
         d="m 828.391,543.732 10.945,-25.652 c 0.301,-0.688 0.648,-1.366 1.042,-1.98 2.965,-5.084 7.18,-7.689 12.38,-7.689 h 19.839 l -4.1,9.602 h -15.682 -1.424 -0.197 c -0.267,0.068 -0.451,0.068 -0.694,0.189 -1.146,0.365 -2.166,1.304 -2.745,2.67 l -2.107,4.945 h 19.514 l -4.1,9.612 h -19.514 l -2.131,4.956 c -0.892,2.108 -0.533,2.85 1.192,3.035 h 1.425 15.611 l -4.089,9.6 h -18.471 c -7.191,0 -9.23,-3.341 -6.694,-9.288 z" />
      <path
         inkscape:connector-curvature="0"
         id="path3116"
         d="m 860.992,553.02 15.252,-35.744 c 2.965,-6.948 9.821,-10.979 14.847,-8.803 2.144,0.928 3.081,3.093 2.444,6.748 l -4.262,25.848 13.932,-32.658 h 9.114 l -15.762,36.926 c -1.98,4.656 -6.879,8.125 -11.35,8.31 -4.181,0.069 -6.092,-2.293 -5.27,-7.562 l 4.1,-25.589 -13.874,32.525 h -9.171 z" />
      <path
         inkscape:connector-curvature="0"
         id="path3118"
         d="m 913.86,518.012 4.1,-9.602 h 28.756 l -4.089,9.602 h -9.612 l -14.939,35.008 h -9.612 l 14.952,-35.008 h -9.556 z" />
      <path
         inkscape:connector-curvature="0"
         id="path3120"
         d="m 937.277,543.732 10.955,-25.652 c 0.289,-0.688 0.637,-1.366 1.031,-1.98 2.977,-5.084 7.18,-7.689 12.392,-7.689 h 19.826 l -4.1,9.602 H 961.7 960.276 960.09 c -0.267,0.068 -0.451,0.068 -0.694,0.189 -1.146,0.365 -2.165,1.304 -2.745,2.67 l -2.13,4.945 h 19.537 l -4.1,9.612 h -19.526 l -2.118,4.956 c -0.892,2.108 -0.533,2.85 1.18,3.035 h 1.425 15.624 l -4.1,9.6 h -18.461 c -7.203,0 -9.229,-3.341 -6.705,-9.288 z" />
      <path
         inkscape:connector-curvature="0"
         id="path3122"
         d="m 988.916,508.41 h 22.445 c 5.315,0 7.295,2.479 5.976,7.312 -0.14,0.614 -0.371,1.176 -0.614,1.732 l -3.81,8.923 c -0.267,0.62 -0.521,1.239 -0.915,1.858 -2.524,4.031 -6.173,6.509 -10.203,7.064 -0.579,0.07 -1.17,0.128 -1.726,0.128 l -1.459,-0.058 3.37,17.648 h -11.338 l -3.012,-16.601 c -0.185,-0.862 0,-2.044 0.73,-3.469 1.899,-3.718 4.887,-5.64 8.176,-5.64 h 3.891 c 1.807,0 2.873,-0.741 3.638,-2.549 l 1.736,-4.082 c 0.672,-1.552 0.324,-2.356 -1.239,-2.6 -0.162,-0.068 -0.405,-0.068 -0.603,-0.068 h -9.542 L 979.49,553.02 h -9.613 l 19.039,-44.61 z" />
    </g>
  </g>
</svg>
