<?xml version="1.0" encoding="UTF-8" standalone="no"?>
<!-- Created with Inkscape (http://www.inkscape.org/) -->

<svg
   xmlns:dc="http://purl.org/dc/elements/1.1/"
   xmlns:cc="http://creativecommons.org/ns#"
   xmlns:rdf="http://www.w3.org/1999/02/22-rdf-syntax-ns#"
   xmlns:svg="http://www.w3.org/2000/svg"
   xmlns="http://www.w3.org/2000/svg"
   xmlns:sodipodi="http://sodipodi.sourceforge.net/DTD/sodipodi-0.dtd"
   xmlns:inkscape="http://www.inkscape.org/namespaces/inkscape"
   id="svg3020"
   version="1.1"
   inkscape:version="0.48.5 r10040"
   width="1530"
   height="990"
   xml:space="preserve"
   sodipodi:docname="tritech big.pdf"><metadata
     id="metadata3026"><rdf:RDF><cc:Work
         rdf:about=""><dc:format>image/svg+xml</dc:format><dc:type
           rdf:resource="http://purl.org/dc/dcmitype/StillImage" /><dc:title></dc:title></cc:Work></rdf:RDF></metadata><defs
     id="defs3024" /><sodipodi:namedview
     pagecolor="#ffffff"
     bordercolor="#666666"
     borderopacity="1"
     objecttolerance="10"
     gridtolerance="10"
     guidetolerance="10"
     inkscape:pageopacity="0"
     inkscape:pageshadow="2"
     inkscape:window-width="1440"
     inkscape:window-height="816"
     id="namedview3022"
     showgrid="false"
     inkscape:zoom="0.67425131"
     inkscape:cx="765"
     inkscape:cy="495"
     inkscape:window-x="0"
     inkscape:window-y="31"
     inkscape:window-maximized="1"
     inkscape:current-layer="g3028" /><g
     id="g3028"
     inkscape:groupmode="layer"
     inkscape:label="tritech big"
     transform="matrix(1.25,0,0,-1.25,383.125,990.625)"><path
       d="m 205.4731,320.6973 73.2041,171.5166 18.379,0 -73.2154,-171.5166 -18.3677,0 z"
       style="fill:#ffffff;fill-opacity:1;fill-rule:nonzero;stroke:none"
       id="path3030" /><path
       d="M 381.1699,615.1465 196.4404,182.3154 13.3662,398.731 381.1699,615.1465 z"
       style="fill:#ef3120;fill-opacity:1;fill-rule:nonzero;stroke:none"
       id="path3032" /><path
       d="m 222.9839,507.0898 142.2964,0 c 11.7549,0 4.0537,-18.038 -7.6895,-18.038 l -142.2969,0 c -12.021,0 -4.331,18.038 7.69,18.038 m -15.356,-186.3574 c -5.1308,-12.0215 -20.5918,-11.7549 -15.4609,0.2656 20.521,48.0967 60.3022,141.2784 60.3022,141.2784 0,0 -35.2177,0 -47.5171,0 -12.8432,0 -4.8989,16.665 7.3887,16.665 17.7656,0 62.8159,0 62.8159,0 0,0 -45.1318,-105.7461 -67.5288,-158.209 m 80.8814,158.7598 c 0,0 45.0512,0 62.8042,0 12.2998,0 6.0107,-16.6719 -6.833,-16.6719 -12.2989,0 -47.5166,0 -47.5166,0 0,0 -39.7696,-93.1807 -60.2915,-141.2656 -5.1416,-12.0215 -20.8218,-12.2988 -15.6919,-0.2774 22.3862,52.462 67.5288,158.2149 67.5288,158.2149 z"
       style="fill:#000000;fill-opacity:1;fill-rule:nonzero;stroke:none"
       id="path3034" /><path
       d="m 501.7402,490.9688 c -16.665,0 -39.2949,0.2724 -54.0488,0.2724 -30.875,0 -88.6641,-37.4365 -107.0898,-80.6103 -18.669,-43.7246 4.8984,-80.0596 43.707,-80.0596 16.9434,0 39.6875,0 51.4424,0 11.7441,0 4.042,-18.0381 -7.7119,-18.0381 -11.7549,0 -34.4893,0 -51.4327,0 -49.4628,0 -77.2456,43.7188 -54.0478,98.0977 23.2197,54.3789 89.5439,98.375 132.707,98.375 14.7657,0 37.3955,-0.2774 54.0606,-0.2774 11.7549,0 4.1689,-17.7597 -7.586,-17.7597 M 354.4053,416.0967 c 0,0 32.914,63.667 93.0312,63.667 19.6768,0 30.5049,0 49.625,0 11.2334,0 4.2852,-16.9434 -6.6826,-16.9434 -12.5644,0 -36.2363,0 -54.0029,0 -27.5967,0 -50.4932,-28.6855 -50.4932,-28.6855 0,0 54.9873,0 74.6641,0 12.2988,0 5.6972,-18.0381 -6.8789,-18.0381 -30.3311,0 -99.2627,0 -99.2627,0 m 94.9424,-10.1162 c 12.5771,0 3.7871,-18.0313 -8.5118,-18.0313 -19.6767,0 -74.664,0 -74.664,0 0,0 -1.5977,-28.6924 26,-28.6924 17.7656,0 41.4365,0 54.0146,0 12.5762,0 5.0713,-16.9365 -7.7949,-16.9365 -19.1201,0 -29.9365,0 -49.625,0 -60.1045,0 -38.6689,63.6602 -38.6689,63.6602 0,0 68.9189,0 99.25,0 z"
       style="fill:#000000;fill-opacity:1;fill-rule:nonzero;stroke:none"
       id="path3036" /><path
       d="m 658.3867,490.1465 c -12.2988,0 -28.1426,0 -47.541,0 -30.875,0 -82.3184,-25.1367 -105.8857,-80.3384 -18.8194,-41.5347 7.9443,-80.6099 37.5459,-79.7876 17.2089,0 33.5966,0 46.9961,0 12.0205,0 4.3203,-18.0371 -7.7022,-18.0371 -13.3877,0 -29.7744,0 -46.9951,0 -41.3447,1.0937 -69.7988,44.54 -47.876,97.8247 27.9912,65.5845 92,98.3696 131.6192,98.3696 19.3974,0 35.2519,0 47.5517,0 12.0088,0 4.3184,-18.0312 -7.7129,-18.0312 M 594.9443,341.498 c -12.5654,0 -21.042,0 -39.8964,0 -36.3409,0 -54.8135,30.3301 -38.8428,67.7715 16.4453,38.5249 61.4834,71.0391 98.0908,71.0391 15.0332,0 28.6875,0 39.0752,0 12.0215,0 4.4482,-17.7598 -7.5732,-17.7598 -10.3887,0 -24.0547,0 -39.0752,0 -25.42,0 -60.1172,-24.3261 -72.4864,-53.2793 -11.4179,-26.7861 2.2823,-49.7402 28.5137,-49.7402 18.8535,0 27.3193,0 39.8965,0 12.0215,0 4.3203,-18.0313 -7.7022,-18.0313 z"
       style="fill:#000000;fill-opacity:1;fill-rule:nonzero;stroke:none"
       id="path3038" /><path
       d="m 614.876,320.7324 76.1689,178.4297 c 5.0147,11.7549 23.0449,11.7549 18.043,0 l -76.168,-178.4297 c -5.1308,-12.0215 -23.1621,-12.0215 -18.0439,0 m 143.7451,0 76.1553,178.4297 c 5.0166,11.7549 23.0478,11.7549 18.0332,0 L 776.6514,320.7324 c -5.1416,-12.0215 -23.1612,-12.0215 -18.0303,0 m -72.7422,95.9092 c 0,0 20.418,47.8179 33.9453,79.5147 6.9942,16.3935 25.1426,16.6718 17.7988,-0.5435 -7.4687,-17.4927 -26.2421,-61.478 -26.2421,-61.478 l 66.6718,0 c 0,0 19.8272,46.4516 26.2442,61.478 6.8779,16.1147 25.3037,16.3926 18.3086,0 -9.2178,-21.5869 -33.7119,-78.9712 -33.7119,-78.9712 l -103.0147,0 m 98.625,-10.9277 c 0,0 -20.7529,-48.6397 -34.4062,-80.6162 -6.8799,-16.1202 -25.5723,-16.3868 -18.3448,0.5459 7.585,17.7646 26.7051,62.583 26.7051,62.583 l -66.6719,0 c 0,0 -20.4179,-47.8291 -26.9375,-63.1289 -6.7754,-15.8418 -24.9228,-16.1202 -18.0322,0 9.3223,21.8662 34.3965,80.6162 34.3965,80.6162 l 103.291,0 z"
       style="fill:#000000;fill-opacity:1;fill-rule:nonzero;stroke:none"
       id="path3040" /><path
       d="m -228.5156,480.459 c -12.2993,0 -20.2324,-16.6655 -7.3892,-16.6655 12.2993,0 47.5117,0 47.5117,0 0,0 -40.6792,-95.3121 -61.2119,-143.4087 -5.1308,-12.0215 10.3301,-12.2989 15.461,-0.2774 22.3974,52.4678 68.4433,160.3516 68.4433,160.3516 0,0 -45.0615,0 -62.8149,0 z"
       style="fill:#000000;fill-opacity:1;fill-rule:nonzero;stroke:none"
       id="path3042" /><path
       d="m -50.144,390.9541 c -23.2203,0 -48.6348,0 -48.6348,0 0,0 -20.875,-48.9131 -29.6187,-69.3994 -5.4838,-12.8438 11.6504,-11.7539 16.8965,0.5439 8.6338,20.2217 22.1665,51.919 22.1665,51.919 0,0 14.1988,0 30.0528,0 10.3764,0 11.9633,-8.4776 8.6972,-16.1211 -8.2802,-19.4043 -10.2719,-24.0547 -15.1709,-35.5254 -5.3618,-12.5703 11.3496,-13.1152 16.9429,0 8.4082,19.6699 8.0493,18.8486 15.5186,36.3359 5.5937,13.1211 0.9155,32.2471 -16.8501,32.2471 z"
       style="fill:#000000;fill-opacity:1;fill-rule:nonzero;stroke:none"
       id="path3044" /><path
       d="m -88.269,480.8984 c -0.417,0.0415 -0.8111,0.105 -1.274,0.105 -17.7597,0 -62.81,0 -62.81,0 0,0 -46.0464,-107.8784 -68.4385,-160.3403 -5.1362,-12.0322 10.562,-11.7549 15.6865,0.2724 20.5274,48.0899 61.2119,143.4019 61.2119,143.4019 0,0 35.2119,0 47.5059,0 0.3813,0 0.7295,0.064 1.0884,0.0869 -21.7373,-50.9389 -48.9419,-114.687 -60.627,-142.0532 -5.3618,-12.5703 10.7998,-13.1152 16.167,-0.5498 19.2539,45.1084 55.6709,130.7969 67.9234,159.3208 l -16.3292,0 c -0.0351,-0.0933 -0.0698,-0.1675 -0.1044,-0.2437 z"
       style="fill:#000000;fill-opacity:1;fill-rule:nonzero;stroke:none"
       id="path3046" /><path
       d="m -6.3208,398.8813 c 0,0 23.127,14.4825 35.3794,43.169 15.623,36.6191 -1.4473,66.3999 -38.0669,66.3999 l -67.4136,0.2202 c -0.0117,-0.0234 -0.0117,-0.0469 -0.0234,-0.0635 l -141.4277,0 c -12.021,0 -19.7168,-18.0381 -7.7012,-18.0381 l 141.4282,0 c -0.0117,-0.0346 -0.0352,-0.0815 -0.0469,-0.1269 l 16.3877,0 c 0.0464,0.0923 0.1045,0.2256 0.1153,0.2432 l 50.7368,0.3706 C 17.165,491.1016 22.7354,463.0869 13.9917,442.6001 1.5073,413.3638 -28.291,398.604 -28.291,398.604 c 0,0 15.9126,-13.9321 8.0952,-32.2427 -9.207,-21.5869 -10.8398,-25.4082 -18.541,-43.4453 -5.7207,-13.3828 10.8403,-13.6601 16.665,0 8.9873,21.0371 10.8511,25.4141 19.3638,45.3574 7.1108,16.67 -3.6128,30.6079 -3.6128,30.6079 z"
       style="fill:#000000;fill-opacity:1;fill-rule:nonzero;stroke:none"
       id="path3048" /><path
       d="m 2.6655,442.3281 c 8.8252,21.315 -1.7026,38.2583 -23.0229,38.2583 -21.3096,0 -40.4531,-0.2895 -40.4531,-0.2895 -6.9947,-16.3926 -33.1797,-78.1377 -33.1797,-78.1377 0,0 22.3984,0 39.3408,0 21.043,0 48.1426,18.0317 57.3149,40.1689 m -15.8545,0 c -5.2002,-12.8437 -22.5136,-24.5927 -32.624,-24.5927 -9.832,0 -26.0688,-0.0582 -26.0688,-0.0582 l 20.4404,47.8999 c 0,0 11.8242,-0.0234 24.6675,-0.0234 12.8437,0 18.7964,-10.3823 13.5849,-23.2256 z"
       style="fill:#000000;fill-opacity:1;fill-rule:nonzero;stroke:none"
       id="path3050" /><path
       d="M 100.3516,497.0317 25.0054,320.5127 c -5.0147,-11.749 13.0171,-11.749 18.0317,0 l 75.3462,176.519 c 5.0151,11.7544 -13.0166,11.7544 -18.0317,0 z"
       style="fill:#000000;fill-opacity:1;fill-rule:nonzero;stroke:none"
       id="path3052" /><path
       d="M 71.9316,497.0317 -3.4146,320.5127 c -5.0034,-11.749 13.0167,-11.749 18.0435,0 l 75.3345,176.519 c 5.0146,11.7544 -13.0171,11.7544 -18.0318,0 z"
       style="fill:#000000;fill-opacity:1;fill-rule:nonzero;stroke:none"
       id="path3054" /><path
       d="m 282.4063,275.3008 c 0.3247,0.7402 0.6953,1.4765 1.2045,2.2226 3.1387,4.586 6.6475,6.5664 11.6621,6.5664 l 19.5259,0 -4.0996,-9.6015 -15.5537,0 -0.6255,0 -0.7641,-0.0684 c -0.9849,-0.1211 -1.7603,-0.4863 -2.4556,-1.2392 -0.2544,-0.3125 -0.4512,-0.6143 -0.5791,-0.9268 l -1.2622,-2.9756 c -0.0806,-0.1797 -0.1968,-0.4287 -0.2085,-0.6142 -0.3125,-1.3028 0.0698,-1.7373 1.5986,-1.9229 0.1621,-0.0576 0.4053,-0.0576 0.5908,-0.0576 l 6.9366,0 c 4.8989,0 6.8906,-2.3047 5.8374,-6.9492 -0.1392,-0.6133 -0.336,-1.2383 -0.6026,-1.8516 l -3.8335,-8.9883 c -2.2465,-5.2685 -6.5317,-8.6152 -11.9633,-9.2988 -0.5899,-0.0576 -1.1114,-0.1152 -1.6675,-0.1152 l -18.958,0 4.0996,9.5996 15.5532,0 0.8691,0 0.312,0 c 0.2085,0.0586 0.417,0.1279 0.6377,0.1855 1.4473,0.4922 2.1421,1.1114 2.6978,2.4199 l 1.3784,3.2208 c 0.5327,1.2382 0.232,1.9863 -1.1235,2.165 l -1.1113,0 -6.8794,0 c -3.1617,0 -5.1192,1.3662 -5.8023,3.9658 -0.3242,1.4307 -0.1738,3.0986 0.5444,4.7725 l 4.0416,9.4912 z"
       style="fill:#000000;fill-opacity:1;fill-rule:nonzero;stroke:none"
       id="path3056" /><path
       d="m 326.2061,266.3711 17.3486,17.7187 10.9785,0 -21.4473,-21.9335 2.7676,-22.6758 -11.0254,0 -2.3398,17.9033 c -0.4512,3.7178 -0.2432,4.6445 1.7597,6.9951 l 1.9581,1.9922 m -13.3995,-26.8906 19.0391,44.6093 -9.6006,0 -19.0386,-44.6093 9.6001,0 z"
       style="fill:#000000;fill-opacity:1;fill-rule:nonzero;stroke:none"
       id="path3058" /><path
       d="m 340.5664,239.4805 19.04,44.6093 9.6124,0 -19.0401,-44.6093 -9.6123,0 z"
       style="fill:#000000;fill-opacity:1;fill-rule:nonzero;stroke:none"
       id="path3060" /><path
       d="m 362.6865,250.377 14.3828,33.7128 9.6016,0 -13.2256,-30.9902 -0.7764,-1.8535 -0.0576,-0.127 c -0.4746,-1.2402 0.0811,-1.9804 1.5401,-2.039 l 1.7373,0 15.2412,0 -4.1582,-9.5996 -17.7881,0 c -0.4981,0 -1.0537,0 -1.5869,0.0576 -6.5078,0.5557 -7.9561,3.706 -4.9102,10.8389 z"
       style="fill:#000000;fill-opacity:1;fill-rule:nonzero;stroke:none"
       id="path3062" /><path
       d="m 395.7275,250.377 14.3838,33.7128 9.6006,0 -13.2265,-30.9902 -0.7862,-1.8535 -0.0469,-0.127 c -0.4755,-1.2402 0.0811,-1.9804 1.5401,-2.039 l 1.7256,0 15.2519,0 -4.1572,-9.5996 -17.7891,0 c -0.497,0 -1.0537,0 -1.5859,0.0576 -6.5205,0.5557 -7.957,3.706 -4.9102,10.8389 z"
       style="fill:#000000;fill-opacity:1;fill-rule:nonzero;stroke:none"
       id="path3064" /><path
       d="m 440.998,275.3008 c 0.3243,0.7402 0.7061,1.4765 1.2041,2.2226 3.127,4.586 6.6475,6.5664 11.6622,6.5664 l 19.5253,0 -4.0996,-9.6015 -15.5537,0 -0.6133,0 -0.7753,-0.0684 c -0.9854,-0.1211 -1.7608,-0.4863 -2.4444,-1.2392 -0.2666,-0.3125 -0.4629,-0.6143 -0.5908,-0.9268 l -1.2734,-2.9756 c -0.0694,-0.1797 -0.1856,-0.4287 -0.1973,-0.6142 -0.3008,-1.3028 0.0586,-1.7373 1.5986,-1.9229 0.1504,-0.0576 0.4053,-0.0576 0.5899,-0.0576 l 6.9375,0 c 4.8984,0 6.8906,-2.3047 5.8486,-6.9492 -0.1504,-0.6133 -0.3476,-1.2383 -0.6133,-1.8516 l -3.834,-8.9883 c -2.247,-5.2685 -6.5322,-8.6152 -11.9638,-9.2988 -0.5782,-0.0576 -1.1104,-0.1152 -1.6553,-0.1152 l -18.9707,0 4.1006,9.5996 15.5537,0 0.8682,0 0.3017,0 c 0.2188,0.0586 0.4278,0.1279 0.6475,0.1855 1.4482,0.4922 2.1543,1.1114 2.6982,2.4199 l 1.3789,3.2208 c 0.5323,1.2382 0.2315,1.9863 -1.1123,2.165 l -1.123,0 -6.8789,0 c -3.1621,0 -5.1192,1.3662 -5.8028,3.9658 -0.3242,1.4307 -0.1738,3.0986 0.545,4.7725 l 4.0419,9.4912 z"
       style="fill:#000000;fill-opacity:1;fill-rule:nonzero;stroke:none"
       id="path3066" /><path
       d="m 486.0371,249.3936 10.4688,24.54 c 3.2998,7.7363 6.8671,10.1562 14.8115,10.1562 l 18.7158,0 -4.0996,-9.6015 -15.9941,0 -0.8682,0 -0.4981,0 c -1.2861,-0.127 -2.3281,-0.8047 -3.0693,-1.9795 l -0.4746,-1.1172 -7.8643,-18.4082 c -1.2724,-2.9766 -1.0185,-3.7178 1.1934,-3.9033 0.2432,0 0.5557,0 0.7998,0 l 15.9238,0 -4.0996,-9.5996 -20.1406,0 c -0.9834,0 -2.0137,0.1738 -3.0566,0.6709 -3.1387,1.4941 -3.7989,4.4697 -1.7481,9.2422 z"
       style="fill:#000000;fill-opacity:1;fill-rule:nonzero;stroke:none"
       id="path3068" /><path
       d="m 521.8906,248.7676 10.9453,25.6523 c 0.3008,0.6885 0.6485,1.3662 1.042,1.9805 2.9649,5.084 7.1797,7.6894 12.3799,7.6894 l 19.8389,0 -4.0996,-9.6015 -15.6817,0 -1.4238,0 -0.1973,0 c -0.2666,-0.0684 -0.4511,-0.0684 -0.6943,-0.1895 -1.1465,-0.3652 -2.166,-1.3037 -2.7451,-2.6699 l -2.1074,-4.9453 19.5136,0 -4.0996,-9.6123 -19.5136,0 -2.1309,-4.9561 c -0.8916,-2.1084 -0.5332,-2.8496 1.1924,-3.0351 l 1.4248,0 15.6113,0 -4.0889,-9.5996 -18.4707,0 c -7.1923,0 -9.2304,3.3408 -6.6953,9.2871 z"
       style="fill:#000000;fill-opacity:1;fill-rule:nonzero;stroke:none"
       id="path3070" /><path
       d="m 554.4922,239.4805 15.2519,35.7441 c 2.9649,6.9483 9.8213,10.9785 14.8467,8.8027 2.1436,-0.9277 3.0811,-3.0927 2.4444,-6.748 l -4.2618,-25.8477 13.9317,32.6582 9.1142,0 -15.7617,-36.9257 c -1.9805,-4.6563 -6.8789,-8.125 -11.3496,-8.3096 -4.1807,-0.0693 -6.0918,2.293 -5.2695,7.5625 l 4.0996,25.5889 -13.874,-32.5254 -9.1719,0 z"
       style="fill:#000000;fill-opacity:1;fill-rule:nonzero;stroke:none"
       id="path3072" /><path
       d="m 607.3604,274.4883 4.0996,9.6015 28.7558,0 -4.0888,-9.6015 -9.6124,0 -14.9394,-35.0078 -9.6123,0 14.9521,35.0078 -9.5546,0 z"
       style="fill:#000000;fill-opacity:1;fill-rule:nonzero;stroke:none"
       id="path3074" /><path
       d="m 630.7773,248.7676 10.9551,25.6523 c 0.2891,0.6885 0.6367,1.3662 1.0313,1.9805 2.9765,5.084 7.1797,7.6894 12.3916,7.6894 l 19.8261,0 -4.0996,-9.6015 -15.6816,0 -1.4238,0 -0.1856,0 c -0.2666,-0.0684 -0.4512,-0.0684 -0.6943,-0.1895 -1.1465,-0.3652 -2.1651,-1.3037 -2.7451,-2.6699 l -2.1299,-4.9453 19.5371,0 -4.0996,-9.6123 -19.5264,0 -2.1181,-4.9561 c -0.8916,-2.1084 -0.5332,-2.8496 1.1796,-3.0351 l 1.4248,0 15.6241,0 -4.0996,-9.5996 -18.461,0 c -7.2031,0 -9.2295,3.3408 -6.7051,9.2871 z"
       style="fill:#000000;fill-opacity:1;fill-rule:nonzero;stroke:none"
       id="path3076" /><path
       d="m 682.416,284.0898 22.4453,0 c 5.3155,0 7.295,-2.4785 5.9756,-7.3125 -0.1396,-0.6142 -0.3711,-1.1757 -0.6142,-1.7324 l -3.8096,-8.9228 c -0.2666,-0.6201 -0.5215,-1.2393 -0.9151,-1.8584 -2.5244,-4.0313 -6.1728,-6.5088 -10.2031,-7.0645 -0.5791,-0.0703 -1.1699,-0.1279 -1.7256,-0.1279 l -1.4589,0.0576 3.3701,-17.6484 -11.3379,0 -3.0117,16.6006 c -0.1846,0.8623 0,2.0439 0.7304,3.4687 1.8994,3.7178 4.8867,5.6397 8.1758,5.6397 l 3.8906,0 c 1.8067,0 2.8731,0.7412 3.6377,2.5488 l 1.7364,4.082 c 0.6718,1.5518 0.3242,2.3565 -1.2393,2.5996 -0.1621,0.0684 -0.4053,0.0684 -0.6025,0.0684 l -9.542,0 -14.9278,-35.0078 -9.6132,0 19.039,44.6093 z"
       style="fill:#000000;fill-opacity:1;fill-rule:nonzero;stroke:none"
       id="path3078" /></g></svg>